# xmcd CD database file
#
# Track frame offsets:
#	150
#	16480
#	34782
#	48620
#	64350
#	78985
#	94587
#	109930
#	125235
#	141445
#	158940
#	172250
#	186297
#	198525
#
# Disc length: 2881 seconds
#
# Revision: 2
# Processed by: cddbd v1.5.2PL0 Copyright (c) Steve Scherf et al.
# Submitted via: CDex 1.51
#
DISCID=d50b3f0e
DTITLE=Snooks Eaglin - Teasin' You
DYEAR=1900
DGENRE=Blues
TTITLE0=Baby, Please Come Home
TTITLE1=Soul Train
TTITLE2=When It Rains It Pours
TTITLE3=Teasin' You
TTITLE4=Dizzy Miss Lizzy
TTITLE5=Black Night
TTITLE6=Sleepwalk
TTITLE7=Travelin' Mood
TTITLE8=Jesus Will Fix It
TTITLE9=Don't Take It So Hard
TTITLE10=Heavy Juice
TTITLE11=Lilly May
TTITLE12=My Love Is Strong
TTITLE13=Red Beans
EXTD=
EXTT0=
EXTT1=
EXTT2=
EXTT3=
EXTT4=
EXTT5=
EXTT6=
EXTT7=
EXTT8=
EXTT9=
EXTT10=
EXTT11=
EXTT12=
EXTT13=
PLAYORDER=
